<svg width="40" height="40" viewBox="0 0 40 40" fill="none" xmlns="http://www.w3.org/2000/svg">
<g clip-path="url(#clip0_208_103)">
<path d="M26.4014 20.1445L22.7255 23.8204L25.4266 26.5214L19.0469 32.9057L11.1996 25.0628L11.1973 25.0606C9.30744 23.1707 8.25903 20.677 8.24517 18.0401C8.2454 17.9895 8.24338 17.9413 8.24594 17.8931C8.26444 14.7484 9.49948 11.7858 11.7162 9.55077C13.9352 7.31353 16.8887 6.0602 20.0312 6.01634C23.0336 5.97556 25.897 7.06101 28.0894 9.07794C30.2704 11.0835 31.5931 13.8147 31.8121 16.7721L36.9644 16.3228C36.6464 12.0612 34.7442 8.1317 31.6098 5.25136C28.4549 2.35043 24.3422 0.786753 20.0235 0.84583C15.505 0.908221 11.2622 2.71497 8.06886 5.93117C4.87774 9.14972 3.1054 13.4084 3.07746 17.9244C3.07711 17.9933 3.07906 18.0645 3.07871 18.1334C3.10169 22.1278 4.68097 25.8913 7.5215 28.7319L7.52376 28.7341L19.0047 40.2058L32.7336 26.4676L26.4014 20.1445Z" fill="#009490"/>
<path d="M16.7472 14.4162C15.1794 15.984 15.1767 18.5257 16.7445 20.0935C18.3101 21.6591 20.8541 21.6587 22.4219 20.0909C23.9897 18.5231 23.9924 15.9814 22.4245 14.4136C20.8567 12.8457 18.315 12.8484 16.7472 14.4162Z" fill="#ED1944"/>
</g>
<defs>
<clipPath id="clip0_208_103">
<rect width="40" height="40" fill="white" transform="translate(0 0.209961)"/>
</clipPath>
</defs>
</svg>
