<svg width="40" height="41" viewBox="0 0 40 41" fill="none" xmlns="http://www.w3.org/2000/svg">
<g clip-path="url(#clip0_14240_14255)">
<path fill-rule="evenodd" clip-rule="evenodd" d="M28.303 3.43749C19.0991 -1.80607 12.1764 -0.887257 4.71498 12.2137C-2.76223 25.3622 0.105094 31.5087 9.22983 36.9582C15.1704 40.5067 20.7625 40.3324 25.6417 36.7523L20.9843 32.4117C18.5605 33.9166 15.8516 33.679 12.0971 31.5404C5.20607 27.6275 5.63379 23.4454 10.2278 15.382C14.6793 7.55629 18.212 4.76818 25.1031 8.68104C32.0258 12.6256 31.4397 17.0771 26.9882 24.9028C26.4971 25.7582 26.0219 26.5503 25.5625 27.279L30.4417 31.8414C31.2654 30.7325 32.0417 29.5127 32.802 28.182C40.2634 15.081 37.5545 8.69688 28.303 3.43749Z" fill="#3570E6"/>
<path fill-rule="evenodd" clip-rule="evenodd" d="M39.4249 33.9486L35.7814 40.3803H31.7259C30.3477 40.3961 29.017 39.9367 28.019 38.9862L26.4032 37.4812L25.6428 36.7525L20.9854 32.412C22.5537 31.4298 24.0111 29.7031 25.5636 27.2793L30.4428 31.8417L31.0923 32.4436L32.2012 33.4733C32.518 33.7743 32.9457 33.9486 33.3893 33.9486H39.4249Z" fill="#00E9F4"/>
</g>
<defs>
<clipPath id="clip0_14240_14255">
<rect width="40" height="40" fill="white" transform="translate(0 0.220703)"/>
</clipPath>
</defs>
</svg>
