<svg width="40" height="41" viewBox="0 0 40 41" fill="none" xmlns="http://www.w3.org/2000/svg">
<g clip-path="url(#clip0_14241_15786)">
<rect y="0.228516" width="40" height="40" rx="20" fill="#22CCD8"/>
<path d="M22.8895 36.2285H22.7929C21.8892 36.2009 20.5868 35.7684 19.5389 33.8568C19.0726 33.0063 18.6407 31.848 18.2234 30.3276C17.5039 27.7255 16.8941 24.3287 16.3042 21.0437C15.8455 18.4906 15.373 15.8533 14.8728 13.7748C14.7624 13.3285 14.6672 12.938 14.5707 12.589C14.5569 12.6379 14.5431 12.6869 14.5293 12.7428C14.0912 14.2494 13.6601 16.1258 13.242 17.9463C12.7074 20.2828 12.1521 22.6965 11.5354 24.5384C11.1518 25.6753 10.782 26.5045 10.3571 27.1467C9.28095 28.7858 7.97231 28.9679 7.2942 28.9258C4.90941 28.7858 3.72426 26.1844 2.88127 23.6589C2.20315 21.6087 1.53194 18.8044 0.873824 15.3304C-0.229236 9.49225 -0.934946 3.43749 -0.990133 2.83733C-1.10603 1.56112 -0.187845 0.424255 1.0725 0.305602C2.32663 0.186949 3.44349 1.12169 3.56008 2.4048C3.60836 2.89321 4.19059 7.90147 5.12878 13.1753C6.02006 18.1698 6.79406 20.9947 7.3556 22.5848C7.41078 22.4178 7.45907 22.2433 7.52047 22.055C7.95852 20.5622 8.38346 18.6927 8.79461 16.886C9.32924 14.5564 9.87766 12.1495 10.4944 10.3083C10.9393 8.96866 11.9879 5.84367 14.6059 5.84367H14.6127C17.4825 5.85056 18.5035 9.61021 18.9974 11.4245C19.6555 13.8521 20.2101 16.9419 20.7993 20.2131C21.2863 22.927 21.7926 25.7305 22.3342 27.9773C22.5293 28.7907 22.7578 29.5957 23.0192 30.3904C23.3827 29.5743 23.8277 28.3533 24.2733 26.61C25.0473 23.5685 25.5413 20.0317 25.6302 16.9143C25.7875 11.0058 24.561 5.16072 21.9851 -0.461504C21.4505 -1.62734 21.9437 -3.00772 23.0882 -3.552C24.2326 -4.09629 25.5889 -3.59339 26.1235 -2.42894C29.0084 3.85554 30.3784 10.4125 30.1936 17.0467C30.0839 20.9733 29.392 25.4656 28.3434 29.0652C27.7957 30.9347 27.192 32.4551 26.5415 33.5781C25.5275 35.3359 24.294 36.2285 22.8895 36.2285V36.2285Z" fill="white"/>
</g>
<defs>
<clipPath id="clip0_14241_15786">
<rect y="0.228516" width="40" height="40" rx="20" fill="white"/>
</clipPath>
</defs>
</svg>
