<svg width="40" height="40" viewBox="0 0 40 40" fill="none" xmlns="http://www.w3.org/2000/svg">
<g clip-path="url(#clip0_14159_14204)">
<path d="M24.2861 31.8484H5.21104C2.17101 31.8484 0.0640211 28.7962 1.09997 25.9506L9.25428 3.71192C9.65571 2.62722 10.3767 1.691 11.3212 1.0279C12.2658 0.364787 13.3891 0.00624636 14.5416 0C16.8918 0 18.9637 1.45566 19.8289 3.64384L28.3644 25.8802C28.6206 26.545 28.7115 27.2625 28.6293 27.9706C28.547 28.6787 28.2941 29.3559 27.8924 29.9438C27.4907 30.5316 26.9524 31.0122 26.324 31.3441C25.6956 31.676 24.9961 31.8491 24.2861 31.8484Z" fill="#0D73FF"/>
<path d="M24.2162 8.18652C23.3533 8.18652 22.5231 8.39548 21.7982 8.74296L28.3623 25.8446C28.6191 26.5092 28.7104 27.2267 28.6286 27.9348C28.5467 28.6429 28.294 29.3203 27.8925 29.9082C27.491 30.4962 26.9527 30.9769 26.3243 31.3088C25.6959 31.6406 24.9964 31.8136 24.2864 31.8128H11.6047L10.7746 34.1019C10.5329 34.7658 10.4544 35.4785 10.5458 36.1793C10.6372 36.8802 10.8958 37.5485 11.2997 38.1276C11.7035 38.7066 12.2406 39.1791 12.8654 39.5051C13.4901 39.831 14.1839 40.0007 14.888 39.9997H33.9607C34.6706 40.0008 35.3701 39.8281 35.9986 39.4965C36.627 39.1649 37.1654 38.6844 37.5671 38.0968C37.9689 37.5091 38.2218 36.8319 38.3041 36.1239C38.3863 35.416 38.2953 34.6985 38.039 34.0338L29.5035 11.7951C29.0771 10.7357 28.347 9.82713 27.4057 9.1847C26.4644 8.54227 25.3543 8.19487 24.2162 8.18652Z" fill="#FF6B73"/>
<path d="M18.8959 11.8987C19.4237 10.5116 20.4628 9.38175 21.798 8.74316L28.3621 25.8448C28.6188 26.5094 28.7102 27.2269 28.6283 27.935C28.5464 28.6431 28.2938 29.3205 27.8923 29.9084C27.4907 30.4964 26.9525 30.9771 26.3241 31.309C25.6957 31.6409 24.9961 31.8139 24.2861 31.813H11.6045L18.8959 11.8987Z" fill="black"/>
</g>
<defs>
<clipPath id="clip0_14159_14204">
<rect width="40" height="40" fill="white"/>
</clipPath>
</defs>
</svg>
