<svg width="40" height="41" viewBox="0 0 40 41" fill="none" xmlns="http://www.w3.org/2000/svg">
<g clip-path="url(#clip0_14173_15175)">
<path fill-rule="evenodd" clip-rule="evenodd" d="M28.3709 9.74049C27.9295 9.74049 27.5617 9.37214 27.5617 8.93015V3.11066C27.5617 1.49003 26.2376 0.164062 24.6192 0.164062H15.4972C13.8788 0.164062 12.5547 1.49003 12.5547 3.11066V8.93015C12.5547 9.37214 12.1869 9.74049 11.7455 9.74049C8.72938 9.74049 6.30176 12.1714 6.30176 15.1917V32.1346C6.30176 35.1548 8.72938 37.5858 11.7455 37.5858C12.1869 37.5858 12.5547 37.9541 12.5547 38.3961V38.6908C12.5547 39.5011 13.2168 40.1641 14.026 40.1641C14.0995 40.1641 14.0995 40.1641 14.1731 40.1641C14.9087 40.0904 15.4972 39.4274 15.4972 38.6171V38.3961C15.4972 37.9541 15.8651 37.5858 16.3065 37.5858H23.8835C24.3249 37.5858 24.6927 37.9541 24.6927 38.3961V38.6171C24.6927 39.3538 25.2076 40.0167 26.0168 40.1641C26.826 40.2377 27.4881 39.6484 27.6353 38.8381C27.6353 38.7644 27.6353 38.7644 27.6353 38.6908V38.3961C27.6353 37.9541 28.0031 37.5858 28.4445 37.5858C31.4606 37.5858 33.8882 35.1548 33.8882 32.1346V15.1917C33.8146 12.1714 31.387 9.74049 28.3709 9.74049ZM15.4237 3.8473C15.4237 3.40532 15.7915 3.03696 16.2329 3.03696H23.8099C24.2513 3.03696 24.6192 3.40532 24.6192 3.8473V8.8565C24.6192 9.29849 24.2513 9.6668 23.8099 9.6668H16.2329C15.7915 9.6668 15.4237 9.29849 15.4237 8.8565V3.8473ZM30.9456 32.1346C30.9456 33.6079 29.7686 34.7865 28.2974 34.7865H12.1869C10.4949 34.7865 9.09717 33.3869 9.09717 31.6926V15.7073C9.09717 14.013 10.4949 12.6134 12.1869 12.6134H27.8559C29.5479 12.6134 30.9456 14.013 30.9456 15.7073V32.1346Z" fill="black"/>
<path fill-rule="evenodd" clip-rule="evenodd" d="M13.8053 16.1499C13.1432 16.1499 12.5547 16.7391 12.5547 17.4021V29.9251C12.5547 30.5881 13.1432 31.1775 13.8053 31.1775H17.557C18.2191 31.1775 18.8076 30.5881 18.8076 29.9251V29.7779C18.8076 29.1149 19.3961 28.5255 20.0582 28.5255C20.3525 28.5255 20.7203 28.6729 20.941 28.8939L22.8536 30.8091C23.0743 31.0301 23.3686 31.1775 23.7364 31.1775H26.3847C27.0467 31.1775 27.6353 30.5881 27.6353 29.9251V27.2732C27.6353 26.9786 27.4881 26.6102 27.2674 26.3892L25.3548 24.474C24.8399 23.9583 24.8399 23.2217 25.3548 22.706C25.5755 22.485 25.8698 22.3377 26.2376 22.3377H26.3847C27.0467 22.3377 27.6353 21.7484 27.6353 21.0854V17.3285C27.6353 16.6655 27.0467 16.0762 26.3847 16.0762L13.8053 16.1499Z" fill="url(#paint0_linear_14173_15175)"/>
</g>
<defs>
<linearGradient id="paint0_linear_14173_15175" x1="12.5492" y1="16.1702" x2="27.5863" y2="31.1639" gradientUnits="userSpaceOnUse">
<stop stop-color="#2C80ED"/>
<stop offset="0.216" stop-color="#1794EC"/>
<stop offset="0.6" stop-color="#32CCCC"/>
<stop offset="1" stop-color="#32CCCC"/>
</linearGradient>
<clipPath id="clip0_14173_15175">
<rect width="40" height="40" fill="white" transform="translate(0 0.228516)"/>
</clipPath>
</defs>
</svg>
