<svg width="40" height="40" viewBox="0 0 40 40" fill="none" xmlns="http://www.w3.org/2000/svg">
<path d="M17.3752 22.0674C15.5323 21.8795 13.9876 21.8258 12.2802 22.4969C11.1149 23.1143 10.0579 24.2149 10.1934 25.6107C10.2476 27.0066 11.1149 27.9193 12.226 28.7246C13.3913 29.503 15.18 29.1004 16.3454 28.483C18.3237 27.3824 17.4565 25.0202 17.6462 23.2485L17.3752 22.0674ZM25.2345 10.9809C24.1233 11.2762 23.2561 12.0278 22.5786 12.9405C22.4702 14.4706 22.145 16.5913 22.5786 18.175C24.1233 18.3093 26.0204 18.3629 27.4839 17.8261C28.6492 17.4503 29.3809 16.4302 29.6248 15.1954C29.6248 14.3364 29.4351 13.0747 28.7576 12.4037C27.8633 11.4104 26.6979 10.793 25.2345 10.9809ZM16.7519 7.46443C14.4754 6.90071 12.1447 7.27652 10.4373 8.80661C9.21778 10.1488 8.02534 11.6789 8.02534 13.6653C7.91694 14.8733 9.24489 14.5243 10.0579 14.578C11.4672 14.9538 10.9793 13.37 11.2775 12.5647C11.7111 11.652 12.4428 10.9809 13.3642 10.7394C14.5838 10.3635 15.9388 10.6051 16.7519 11.5983C17.8088 13.4237 17.863 16.1618 17.2397 18.2287C14.7735 18.524 12.1989 18.6582 10.0037 19.6783C7.78143 20.9668 6.56188 23.3827 6.80579 25.8792C6.86 28.9125 9.02807 31.4089 11.7111 32.4558C14.5296 33.798 17.6733 32.1606 19.8143 30.4963C21.2777 32.3753 23.6355 33.2343 25.9662 33.1001C28.5408 32.9927 30.2753 31.1674 31.2509 28.7783C31.3864 27.7314 32.0368 26.3355 31.2509 25.4228C30.194 25.1812 29.4622 25.2349 28.2969 25.4228C27.8633 26.6308 27.9988 28.5098 26.5624 29.0736C25.3971 29.3151 23.9336 29.3688 23.0122 28.6441C21.6572 26.9529 22.5244 24.5101 22.2805 22.3626L22.5786 21.8795C26.0204 21.8795 29.8959 21.5842 31.4948 18.3629C33.0938 16.1081 33.0396 13.0747 31.9284 10.7125C30.7089 8.69924 28.5408 7.49127 26.1017 7.43759C23.4458 7.49127 22.1179 8.77977 20.1937 10.4709C19.2723 9.39717 18.2695 7.8134 16.7519 7.46443ZM37.6196 10.4441C40.6821 15.7323 40.8176 23.839 37.8636 29.1272C34.5301 35.7039 27.5381 40.0794 19.8143 39.9989C12.1989 40.0526 4.96293 35.1939 1.87341 28.6977C-1.43291 21.5036 -0.32177 12.9405 4.88162 6.90071C9.4346 1.71989 16.3725 -0.88394 23.3103 0.270336C29.1641 1.31724 34.8553 5.15588 37.6196 10.4441Z" fill="#CC0000"/>
</svg>
