<svg width="40" height="41" viewBox="0 0 40 41" fill="none" xmlns="http://www.w3.org/2000/svg">
<g clip-path="url(#clip0_14164_14570)">
<path d="M26.1901 5.37929C28.9849 5.37929 31.7797 5.36429 34.5745 5.37929C38.111 5.3943 40.0441 7.32227 40.0591 10.8632C40.0816 15.6118 40.0591 20.3605 40.0741 25.1092C40.0741 26.557 39.5571 27.7648 38.5306 28.7776C36.7623 30.5255 34.9791 32.2509 33.2482 34.0364C32.1843 35.1317 30.918 35.6718 29.427 35.6793C25.3884 35.6943 21.3498 35.6943 17.3112 35.6793C16.3072 35.6793 16.0375 35.2292 16.562 34.404C18.8547 30.7881 21.17 27.1872 23.4852 23.5863C23.9947 22.7911 24.744 22.4685 25.6956 22.4685C27.6512 22.461 29.6068 22.6186 31.5549 22.3485C32.2817 22.251 32.9336 21.9734 33.4655 21.4633C34.1399 20.8256 34.1249 20.0604 33.3981 19.4753C32.6488 18.8751 31.7722 18.5901 30.8056 18.5976C29.1872 18.5976 27.5763 18.5826 25.9578 18.6051C24.7665 18.6201 23.8599 18.14 23.223 17.1422C20.9752 13.6463 18.7274 10.1505 16.4721 6.65461C16.2773 6.35453 16.1274 6.06196 16.3297 5.70937C16.5545 5.32678 16.8991 5.36429 17.2438 5.36429C20.2259 5.36429 23.208 5.36429 26.1901 5.36429C26.1901 5.37179 26.1901 5.37179 26.1901 5.37929ZM27.9884 8.35753C27.9884 8.35753 27.9884 8.35003 27.9884 8.35753C25.6581 8.35003 23.3279 8.36503 20.9977 8.34253C20.2933 8.33503 20.1585 8.52257 20.5481 9.12272C21.9867 11.3658 23.4178 13.6238 24.8489 15.8819C25.1636 16.3695 25.5832 16.5871 26.1676 16.5796C27.6587 16.5571 29.1497 16.5421 30.6408 16.5721C32.2068 16.6021 33.6379 17.0897 34.8517 18.0949C36.3128 19.3102 36.4401 21.2157 35.1664 22.6261C34.1848 23.7138 32.941 24.3065 31.48 24.374C29.8391 24.449 28.1982 24.569 26.5498 24.3965C25.7705 24.314 25.1561 24.6066 24.7365 25.2817C23.3504 27.4873 21.9642 29.7003 20.5631 31.8984C20.151 32.536 20.2709 32.7461 21.0351 32.7311C23.3579 32.6861 25.6881 32.581 28.0183 32.7311C29.8615 32.8511 31.3151 32.0634 32.4465 30.6155C32.8661 30.0829 32.8886 29.6628 32.484 29.1302C31.7197 28.1099 31.0004 27.0597 30.2512 26.0319C29.914 25.5668 30.0938 25.3342 30.5883 25.2967C31.465 25.2292 32.2667 25.4243 32.8287 26.1669C33.2557 26.7371 33.6529 27.3297 34.0724 27.9074C34.2298 28.1249 34.4771 28.5 34.7168 28.245C35.5635 27.3447 36.9347 26.7746 36.9422 25.3042C36.9796 21.1782 36.9571 17.0447 36.9571 12.9112C36.9571 12.6711 36.9946 12.4235 36.6874 12.2885C36.028 12.0034 34.6494 12.311 34.1998 12.9037C33.8027 13.4213 33.3981 13.9389 33.0909 14.5091C32.6189 15.4018 31.9071 15.7169 30.9405 15.6418C30.0863 15.5743 29.9739 15.3943 30.446 14.7041C30.8806 14.0589 31.3975 13.4663 31.7872 12.7986C32.8062 11.0432 34.1773 9.96293 36.3278 10.2255C37.0396 10.308 37.0471 9.91042 36.8073 9.4303C36.4177 8.6426 35.7133 8.36503 34.8817 8.36503C32.5814 8.35003 30.2811 8.35753 27.9884 8.35753Z" fill="#48BEE8"/>
<path d="M0.0033301 20.4346C0.0033301 17.1413 -0.00416262 13.848 0.0033301 10.5622C0.0108228 7.48641 2.04135 5.4234 5.13584 5.37839C7.62342 5.34838 10.1035 5.38589 12.5911 5.36339C13.5277 5.35589 14.1121 5.74598 14.4193 6.6237C15.1911 8.78424 16.0003 10.9373 16.772 13.0978C17.0567 13.893 17.1916 14.7257 17.1167 15.5734C17.0493 16.3011 17.349 16.7512 18.0383 16.9913C18.4204 17.1263 18.7726 17.3214 19.1322 17.5089C19.387 17.6364 19.6417 17.809 19.5518 18.1466C19.4544 18.5141 19.1472 18.5892 18.8175 18.5742C17.2591 18.5141 15.7156 18.6117 14.1646 18.7617C13.0856 18.8667 11.9992 18.9117 10.9127 18.9943C9.78882 19.0768 8.94214 18.6267 8.29777 17.7039C7.50354 16.5562 6.67185 15.4309 5.84765 14.3056C5.44304 13.758 5.05342 13.2253 4.38657 12.9103C3.71972 12.5952 3.79464 11.92 3.97447 11.3574C4.19176 10.6822 4.77619 10.9073 5.24074 11.0348C6.05744 11.2598 6.62689 11.8225 7.10642 12.4977C7.99806 13.7655 8.92715 15.0108 9.8038 16.2936C10.2234 16.9012 10.7104 17.1338 11.4597 16.9988C12.3438 16.8337 13.243 16.7812 14.1421 16.7137C14.8689 16.6537 15.1761 16.3236 15.1461 15.5734C15.1012 14.4631 14.7565 13.4429 14.3744 12.4301C13.9847 11.3874 13.5951 10.3371 13.2355 9.27936C13.0182 8.6342 12.666 8.32662 11.9467 8.34163C9.77383 8.37913 7.60094 8.34913 5.42056 8.37163C3.80214 8.37163 3.13529 9.0318 3.12779 10.6072C3.11281 13.1578 3.15027 15.7009 3.10531 18.2516C3.09033 18.9793 3.39753 19.2268 4.0494 19.3393C4.90357 19.4819 5.74275 19.7069 6.59692 19.887C6.94908 19.962 7.27876 20.0595 7.30873 20.4871C7.34619 20.9598 6.95657 21.0273 6.63438 21.1023C5.72777 21.3198 4.82864 21.5599 3.90704 21.7099C3.34508 21.8 3.09782 22.01 3.10531 22.6027C3.12779 25.3333 3.10531 28.0715 3.12779 30.8022C3.13529 31.8449 3.76467 32.5501 4.77619 32.5726C7.29374 32.6326 9.8113 32.6101 12.3214 32.6326C12.726 32.6326 12.9358 32.4601 13.0631 32.0775C13.6476 30.2471 14.4793 28.4991 14.9438 26.6312C15.0487 26.2111 15.0937 25.7759 15.1536 25.3483C15.2285 24.7707 14.9213 24.4631 14.3819 24.3956C13.2729 24.2456 12.164 24.133 11.0551 23.9905C10.4107 23.908 10.1035 24.3356 9.78882 24.7707C8.82226 26.0985 7.8482 27.4339 6.89663 28.7692C6.46205 29.3768 5.90759 29.7819 5.18829 29.992C4.7687 30.112 4.31164 30.2696 4.0419 29.7669C3.77966 29.2643 3.7347 28.6567 4.22173 28.3191C5.96753 27.1038 6.85167 25.2058 8.05051 23.5629C9.00957 22.2576 10.1709 21.7324 11.7444 21.9875C13.9548 22.3476 16.1801 22.4976 18.4204 22.4826C18.7951 22.4826 19.327 22.2951 19.4544 22.8352C19.5818 23.3904 19.0198 23.5029 18.6602 23.7129C18.4954 23.803 18.338 23.9005 18.1582 23.9605C17.3714 24.2156 17.0568 24.6807 17.1317 25.5584C17.2665 27.2838 16.4573 28.8142 15.8954 30.3821C15.4158 31.7249 14.8839 33.0527 14.4043 34.3956C14.1196 35.1983 13.5651 35.6559 12.7484 35.6634C9.98363 35.6784 7.21882 35.8584 4.4615 35.5809C1.81657 35.3108 0.0782573 33.3753 0.0482864 30.6897C0.0108228 27.2613 0.0407937 23.848 0.0407937 20.4346C0.0258082 20.4346 0.0183155 20.4346 0.0033301 20.4346Z" fill="#48BEE8"/>
</g>
<defs>
<clipPath id="clip0_14164_14570">
<rect width="40" height="40" fill="white" transform="translate(0 0.552734)"/>
</clipPath>
</defs>
</svg>
