<svg width="40" height="41" viewBox="0 0 40 41" fill="none" xmlns="http://www.w3.org/2000/svg">
<g clip-path="url(#clip0_14241_15079)">
<path d="M2.02669 11.4712C2.02669 10.9983 2.02669 10.5253 2.02669 10.0773C2.02669 9.55462 2.17605 9.3555 2.67386 9.18127C4.16728 8.65857 4.71484 6.91624 3.76901 5.67173C3.49521 5.29837 3.097 5.04947 2.67386 4.90012C2.17605 4.72589 2.02669 4.52677 2.02669 3.97918C2.02669 3.08313 2.02669 2.18707 2.02669 1.26613C2.02669 0.618979 2.30049 0.320294 2.97253 0.345185C9.76761 0.519417 16.1146 2.31152 21.8892 5.89574C30.4764 11.2472 36.1265 18.8387 38.8396 28.5958C39.6361 31.5079 40.0343 34.4699 40.109 37.4816C40.1339 38.1537 39.8601 38.4524 39.1631 38.4524C38.2671 38.4524 37.371 38.4524 36.4501 38.4524C35.9025 38.4524 35.6785 38.303 35.5042 37.7803C35.1807 36.8096 34.3593 36.2122 33.3637 36.2122C32.3929 36.2122 31.5467 36.8345 31.2231 37.7803C31.0489 38.303 30.8497 38.4524 30.3022 38.4524C29.4061 38.4524 28.5101 38.4524 27.5891 38.4524C26.8922 38.4524 26.6433 38.2283 26.6184 37.5065C26.5437 35.1917 26.1704 32.9516 25.4237 30.7612C23.1338 24.0657 18.8028 19.1872 12.4558 16.1008C9.41914 14.6323 6.1834 13.8856 2.8232 13.786C2.3005 13.7611 2.02669 13.4873 2.02669 12.9646C2.0018 12.4668 2.02669 11.969 2.02669 11.4712Z" fill="#0077FE"/>
<path d="M2.03516 22.7455C2.03516 21.5508 2.03516 20.3809 2.03516 19.1862C2.03516 18.5141 2.33384 18.2403 3.00588 18.2652C11.1948 18.7381 18.0646 23.766 20.9767 31.4073C21.7234 33.3737 22.1217 35.4396 22.2213 37.5553C22.2461 38.1029 21.9475 38.4264 21.3999 38.4264C18.9357 38.4264 16.4965 38.4264 14.0323 38.4264C13.5345 38.4264 13.2607 38.1277 13.211 37.605C12.8127 33.3488 10.6721 30.2375 6.8639 28.296C5.61938 27.6738 4.27528 27.3253 2.88142 27.2258C2.28405 27.176 2.03516 26.9022 2.03516 26.3048C2.03516 25.135 2.03516 23.9402 2.03516 22.7455Z" fill="#0077FE"/>
<path d="M7.73052 36.5848C7.73052 38.6756 6.01306 40.3682 3.89738 40.3433C1.80658 40.3184 0.114053 38.601 0.138943 36.4853C0.163833 34.3945 1.85639 32.7019 3.99696 32.7268C6.06286 32.7517 7.73052 34.4443 7.73052 36.5848Z" fill="#0077FE"/>
</g>
<defs>
<clipPath id="clip0_14241_15079">
<rect width="40" height="40" fill="white" transform="translate(0 0.228516)"/>
</clipPath>
</defs>
</svg>
