<?xml version="1.0" encoding="UTF-8"?>
<svg width="32px" height="32px" viewBox="0 0 32 32" version="1.1" xmlns="http://www.w3.org/2000/svg" xmlns:xlink="http://www.w3.org/1999/xlink">
    <!-- Generator: Sketch 59.1 (86144) - https://sketch.com -->
    <title>Welcome_logo.Glyph.Green</title>
    <desc>Created with Sketch.</desc>
    <g id="Welcome_logo.Glyph.Green" stroke="none" stroke-width="1" fill="none" fill-rule="evenodd">
        <g id="Logo-/-02.Glyph-/-Green" fill="#00CF95">
            <g id="Logo-/-Glyph-/-Green">
                <path d="M15.9998067,4.79616347e-14 C24.836698,4.79616347e-14 32,7.16310797 32,15.9988964 C32,24.8342982 24.836698,31.9974062 15.9998067,31.9974062 C7.16330204,31.9974062 0,24.8342982 0,15.9988964 C0,7.16310797 7.16330204,4.79616347e-14 15.9998067,4.79616347e-14 Z M26.0881205,14.5948808 C25.7530547,14.2598422 25.2294753,14.2263383 24.8567068,14.4943692 L24.7385017,14.5948808 L18.9642516,20.3690494 C18.5911831,20.7417011 18.5911831,21.3459071 18.9642516,21.7185588 C19.150206,21.9048847 19.3949235,21.9980476 19.6388677,21.9980476 C19.8343325,21.9980476 20.0297972,21.9384233 20.195571,21.8191748 L20.3138705,21.7185588 L26.0881205,15.9447768 C26.4608024,15.5721251 26.4608024,14.9679191 26.0881205,14.5948808 Z M13.036135,20.3690494 L7.26188491,14.5948808 C6.889203,14.2226157 6.28456139,14.2226157 5.91187948,14.5948808 C5.57611782,14.9306153 5.54254165,15.4535956 5.81115098,15.8264974 L5.91187948,15.9447768 L11.6861295,21.7185588 C11.8724705,21.9048847 12.1168014,21.9980476 12.3611323,21.9980476 C12.6054631,21.9980476 12.849794,21.9048847 13.036135,21.7185588 C13.3715487,21.3831723 13.4050901,20.8602268 13.1367591,20.4873284 L13.036135,20.3690494 L7.26188491,14.5948808 L13.036135,20.3690494 Z M15.9998067,11.309438 C13.94735,11.309438 12.2776268,12.9790259 12.2776268,15.0313163 C12.2776268,17.0836066 13.94735,18.7531945 15.9998067,18.7531945 C18.05265,18.7531945 19.7223732,17.0836066 19.7223732,15.0313163 C19.7223732,12.9790259 18.05265,11.309438 15.9998067,11.309438 Z M15.9998067,13.217925 C16.9999396,13.217925 17.8137315,14.031651 17.8137315,15.0313163 C17.8137315,16.0313681 16.9999396,16.8447075 15.9998067,16.8447075 C14.9996738,16.8447075 14.1862685,16.0313681 14.1862685,15.0313163 C14.1862685,14.031651 14.9996738,13.217925 15.9998067,13.217925 Z" id="Fill"></path>
            </g>
        </g>
    </g>
</svg>