<svg width="400" height="400" viewBox="0 0 400 400" fill="none" xmlns="http://www.w3.org/2000/svg">
<rect width="400" height="400" rx="60" fill="#FF6900"/>
<path d="M66.9703 134.851C74.3938 134.851 81.2077 136.27 87.2225 139.067L87.9849 139.421L91.558 125.644L91.0924 125.39C84.6253 121.864 76.2838 120 66.9703 120C54.3815 120 43.9017 123.963 36.6641 131.462C30.1159 138.247 26.5093 147.737 26.5093 158.184C26.5093 177.719 40.2634 189.854 62.4041 189.854C69.0299 189.854 78.8094 188.583 84.5628 185.001L84.832 184.833L90.0318 149.037H59.1019L55.7137 162.399H71.9751L70.1585 174.921C67.2755 175.462 64.6034 175.747 62.4041 175.747C51.5987 175.747 45.4015 169.345 45.4015 158.184C45.4015 137.125 60.4852 134.851 66.9703 134.851Z" fill="black"/>
<path d="M119.673 151.157C124.762 151.157 125.83 154.608 125.83 157.503C125.83 158.171 125.776 158.804 125.711 159.415H110.276C111.753 153.861 114.833 151.157 119.673 151.157ZM119.673 138.266C111.362 138.266 104.403 141.314 99.5497 147.08C95.1464 152.31 92.7217 159.587 92.7217 167.569C92.7217 174.27 95.3479 189.854 119.673 189.854C124.584 189.854 129.994 188.725 134.143 186.835L134.43 186.704L138.797 171.655L137.296 172.535C132.57 175.304 127.213 176.594 120.434 176.594C113.906 176.594 110.449 174.435 109.625 169.813H140.372L140.511 169.316C141.26 166.651 142.153 162.582 142.153 158.334C142.153 146.143 133.329 138.266 119.673 138.266Z" fill="black"/>
<path d="M169.195 126.73L151.403 129.167L145.908 167.407C145.574 169.702 145.425 171.403 145.425 172.921C145.425 184.157 151.708 189.854 164.1 189.854C166.954 189.854 169.776 189.435 172.487 188.608L172.868 188.493L175.987 175.192L174.837 175.54C172.712 176.181 170.759 176.443 168.096 176.443C163.482 176.443 162.89 174.261 162.89 172.36C162.89 170.812 163.117 169.17 163.299 167.85L165.653 151.559H177.75L181.291 139.55H167.371L169.195 126.73Z" fill="black"/>
<path d="M81.0566 209.069H29.4903L25.8159 223.87H43.6959L36.18 277.433H54.0392L61.5552 223.87H77.3826L81.0566 209.069Z" fill="black"/>
<path d="M105.078 240.834L108.645 228.354L108.294 228.065C106.48 226.57 104.091 225.813 101.193 225.813C99.0949 225.813 94.2016 226.478 90.5876 232.121L90.451 227.335H75.569L68.5244 277.433H85.2431L89.4502 247.124L89.5645 246.839C91.5761 241.809 94.6839 239.663 99.9564 239.663C101.171 239.663 102.906 240.019 104.375 240.57L105.078 240.834Z" fill="black"/>
<path d="M134.11 254.725L132.89 263.343C130.237 265.509 127.685 266.437 124.406 266.437C122.427 266.437 119.106 265.909 119.106 262.374C119.106 260.256 119.832 257.935 125.219 256.773L132.236 255.255C132.904 255.134 133.532 254.94 134.11 254.725ZM128.972 225.814C123.412 225.814 117.831 226.79 111.91 228.8L111.566 228.916L107.477 243.228L108.756 242.761C115.067 240.457 121.537 239.188 126.974 239.188C134.369 239.188 135.224 240.964 135.224 242.3C135.224 243.721 134.369 244.338 129.02 245.428L120.455 247.235C108.299 249.834 102.877 255.206 102.877 264.657C102.877 273.343 109.199 278.956 118.983 278.956C124.06 278.956 128.426 277.444 132.288 274.342C132.358 275.182 132.442 276.027 132.569 276.845L132.659 277.433H148.84L148.787 276.691C148.693 275.384 148.693 274.636 148.693 273.505C148.693 271.047 148.958 267.608 149.353 264.944L152.017 246.007C152.218 244.497 152.309 242.628 152.309 241.444C152.309 234.313 148.26 225.814 128.972 225.814" fill="black"/>
<path d="M189.002 225.813C183.844 225.813 179.573 227.581 175.993 231.205L175.765 227.335H160.618L153.574 277.433H170.958L175.861 242.438C177.798 240.562 179.749 239.758 182.342 239.758C185.601 239.758 187.547 241.419 187.547 244.202C187.547 245.364 187.448 246.574 187.363 247.246L183.163 277.433H200.166L204.34 247.44C204.852 243.856 204.917 242.403 204.917 241.538C204.917 231.986 198.67 225.813 189.002 225.813Z" fill="black"/>
<path d="M238.169 247.559L230.944 244.517C227.958 243.223 227.271 242.612 227.271 241.253C227.271 239.231 230.309 238.806 232.857 238.806C238.359 238.806 244.756 241.331 248.078 242.836L248.804 243.164L252.424 230.919L251.927 230.652C246.017 227.486 239.423 225.813 232.857 225.813C218.424 225.813 209.806 231.905 209.806 242.109C209.806 249.313 213.071 253.632 221.076 257.018L227.832 259.873C231.896 261.575 232.259 262.19 232.259 263.515C232.259 264.184 232.259 265.961 227.053 265.961C221.726 265.961 215.792 264.401 210.344 261.568L209.589 261.175L206.066 273.56L206.551 273.827C212.835 277.277 219.542 278.955 227.053 278.955C248.089 278.955 249.724 266.482 249.724 262.659C249.724 254.086 245.487 250.631 238.169 247.559Z" fill="black"/>
<path d="M276.167 227.335L276.45 225.077C276.835 222.219 278.199 221.206 281.66 221.206C283.376 221.206 285.311 221.506 286.97 222.03L287.646 222.243L291.165 210.193L290.56 209.969C286.913 208.614 283.183 207.927 279.472 207.927C267.178 207.927 260.702 213.316 259.092 224.888L251.751 277.433H269.134L274.462 239.568H283.627L286.739 227.335H276.167Z" fill="black"/>
<path d="M310.642 238.697C315.707 238.697 316.771 242.149 316.771 245.044C316.771 245.713 316.718 246.345 316.652 246.957H301.286C302.756 241.401 305.823 238.697 310.642 238.697ZM310.642 225.804C302.366 225.804 295.439 228.852 290.607 234.619C286.223 239.85 283.808 247.128 283.808 255.112C283.808 261.814 286.423 277.4 310.642 277.4C315.532 277.4 320.917 276.272 325.048 274.381L325.334 274.25L329.682 259.198L328.187 260.078C323.482 262.848 318.148 264.138 311.399 264.138C304.9 264.138 301.458 261.979 300.637 257.356H331.25L331.388 256.859C332.134 254.194 333.023 250.124 333.023 245.875C333.023 233.682 324.238 225.804 310.642 225.804Z" fill="black"/>
<path d="M370.081 240.57L370.784 240.834L374.351 228.354L374 228.065C372.186 226.57 369.797 225.813 366.899 225.813C364.801 225.813 359.908 226.478 356.294 232.121L356.157 227.335H341.275L334.23 277.433H350.949L355.156 247.124L355.271 246.839C357.282 241.809 360.39 239.663 365.663 239.663C366.878 239.663 368.612 240.019 370.081 240.57Z" fill="black"/>
</svg>
