<svg width="220" height="220" viewBox="0 0 220 220" fill="none" xmlns="http://www.w3.org/2000/svg">
<path fill-rule="evenodd" clip-rule="evenodd" d="M78.3269 143.212C78.8476 139.135 82.6638 136.245 86.8409 136.754L88.5449 136.959C102.994 138.719 117.614 138.719 132.068 136.959L133.767 136.754C137.95 136.245 141.76 139.135 142.287 143.212C142.807 147.295 139.837 151.015 135.66 151.524L133.956 151.735C118.253 153.647 102.361 153.647 86.6516 151.735L84.9535 151.524C80.7702 151.015 77.806 147.295 78.3269 143.212ZM191.159 133.718C191.159 141.118 185.011 147.113 177.432 147.113C169.847 147.113 163.699 141.118 163.699 133.718C163.699 126.313 169.847 120.317 177.432 120.317C185.011 120.317 191.159 126.313 191.159 133.718ZM49.749 93.1282C49.749 93.1282 49.749 93.1227 49.749 93.1109C49.749 93.1227 49.749 93.1282 49.749 93.1282ZM171.036 93.6139C171.036 93.6139 171.03 93.6081 171.03 93.5963C171.036 93.6081 171.036 93.6139 171.036 93.6139ZM56.9081 133.718C56.9081 141.118 50.7606 147.113 43.1814 147.113C35.596 147.113 29.4486 141.118 29.4486 133.718C29.4486 126.313 35.596 120.317 43.1814 120.317C50.7606 120.317 56.9081 126.313 56.9081 133.718ZM77.2441 51.4975C86.983 50.1053 98.9465 48.8418 110.307 48.8418C121.661 48.8418 133.624 50.1053 143.364 51.4975C151.546 52.6732 158.51 58.4994 161.487 66.8407L170.551 92.2275C162.557 95.3863 144.955 99.908 110.455 99.434C76.4158 98.9662 58.618 94.7663 50.2162 91.7888L59.1212 66.8407C62.097 58.4994 69.0612 52.6732 77.2441 51.4975ZM110.307 28C97.5089 28 84.4091 29.398 74.1377 30.8721C57.3282 33.288 44.2877 45.0396 38.951 59.9794L29.6144 86.144C29.5847 86.2259 29.5551 86.3136 29.5254 86.4016L12.0771 81.8329C9.63351 81.1953 7.12492 82.611 6.4681 84.9917L5.68106 87.8698C2.9298 97.8898 8.75777 108.179 18.769 111.309V140.509C18.769 145.054 19.8459 149.383 21.8219 153.138V182.848C21.8219 187.785 25.9221 191.786 30.9752 191.786H49.2814C54.3345 191.786 58.4347 187.785 58.4347 182.848V168.803C70.7652 169.856 92.0004 170.663 110.307 170.886C128.613 171.12 149.842 170.517 162.173 169.523V182.848C162.173 187.785 166.273 191.786 171.326 191.786H189.632C194.691 191.786 198.785 187.785 198.785 182.848V154.361C200.773 150.647 201.838 146.341 201.838 141.831V111.104C211.832 107.963 217.648 97.6793 214.903 87.6709L214.11 84.7987C213.459 82.4122 210.95 80.9965 208.507 81.6399L191.017 86.2083L181.657 59.9794C176.326 45.0396 163.279 33.288 146.47 30.8721C136.198 29.398 123.104 28 110.307 28Z" fill="#FBB216"/>
</svg>
