<?xml version="1.0" encoding="UTF-8"?>
<svg id="Layer_1" data-name="Layer 1" xmlns="http://www.w3.org/2000/svg" viewBox="0 0 16 16">
  <defs>
    <style>
      .cls-1 {
        fill: #fff;
      }

      .cls-2 {
        fill: #066bd9;
      }
    </style>
  </defs>
  <rect class="cls-2" width="16" height="16"/>
  <g>
    <path class="cls-1" d="M4.22,7.98c0-.07.02-.13.06-.18.04-.05.1-.07.16-.07h2.08c.06,0,.12.02.16.07.04.05.06.11.06.18v.44c0,.26-.04.5-.13.73s-.21.43-.36.61c-.15.17-.33.31-.53.41-.2.1-.42.15-.65.15h-2.11c-.23,0-.44-.05-.64-.15-.2-.1-.38-.24-.53-.41-.15-.17-.27-.37-.36-.6-.09-.23-.13-.48-.13-.74v-.84c0-.26.04-.5.13-.73.09-.23.21-.43.36-.61.15-.17.33-.31.53-.41.2-.1.42-.15.65-.15h2.61c.06,0,.12.02.16.07.04.05.06.11.06.18s-.02.13-.06.18c-.04.05-.1.07-.16.07h-2.61c-.16,0-.32.04-.47.11-.15.07-.28.17-.39.3-.11.13-.2.27-.27.44-.06.17-.1.35-.1.53v.85c0,.19.03.37.1.54.06.17.15.32.26.45.11.13.24.23.39.3.15.07.3.11.47.11h2.12c.16,0,.32-.04.47-.11.15-.07.28-.17.39-.3.11-.13.2-.27.27-.44.06-.17.1-.35.1-.53v-.19h-1.86c-.06,0-.12-.02-.16-.07-.04-.05-.06-.11-.06-.18h0Z"/>
    <path class="cls-1" d="M7.84,11.14h4.74c1.17,0,2.12-.95,2.12-2.12v-3.95c0-.21-.19-.19-.19-.19h-4.74c-1.17,0-2.12.95-2.12,2.12v3.95c0,.2.19.19.19.19ZM13.14,8.48c-.13-.15-.28-.23-.47-.23h-2.99c-.16,0-.3-.03-.44-.1-.14-.07-.26-.16-.36-.27-.1-.12-.18-.25-.24-.41-.06-.16-.09-.32-.09-.5s.03-.35.09-.5c.06-.16.14-.29.24-.41.1-.12.22-.21.36-.28.14-.07.28-.1.44-.1h3.89c.06,0,.12.02.16.07.04.05.06.11.06.18s-.02.13-.06.18c-.04.05-.1.07-.16.07h-3.89c-.09,0-.18.02-.27.06-.08.04-.16.1-.22.17-.06.07-.11.15-.15.25-.04.09-.05.19-.05.3s.02.21.05.3c.04.1.08.18.14.25.06.07.13.13.22.17.08.04.17.06.27.06h2.99c.15,0,.3.03.44.1.14.07.26.16.36.27.1.12.19.25.24.41.06.16.09.32.09.5s-.03.35-.09.51c-.06.16-.14.3-.24.41-.1.12-.22.21-.36.28-.14.07-.28.1-.44.1h-3.89c-.06,0-.12-.02-.16-.07-.04-.05-.06-.11-.06-.18s.02-.13.06-.18c.04-.05.1-.07.16-.07h3.89c.1,0,.19-.02.27-.06.08-.04.15-.1.21-.17.06-.07.11-.15.14-.24.04-.09.06-.19.06-.3-.02-.22-.09-.41-.21-.56h0Z"/>
  </g>
</svg>