<?xml version="1.0" encoding="UTF-8"?>
<svg version="1.1" xmlns="http://www.w3.org/2000/svg" width="225" height="225">
<path d="M0 0 C74.25 0 148.5 0 225 0 C225 74.25 225 148.5 225 225 C150.75 225 76.5 225 0 225 C0 150.75 0 76.5 0 0 Z " fill="#26BEC8" transform="translate(0,0)"/>
<path d="M0 0 C2.64 0 5.28 0 8 0 C8.07449853 5.1411629 8.12876593 10.28200729 8.16479492 15.42358398 C8.17982429 17.1703845 8.20025354 18.91714765 8.22631836 20.66381836 C8.2629608 23.18352515 8.27978492 25.70273039 8.29296875 28.22265625 C8.30845261 28.99585709 8.32393646 29.76905792 8.33988953 30.56568909 C8.34170604 36.49990725 7.30117259 41.31974794 3.31640625 45.9609375 C2.73761719 46.42757812 2.15882812 46.89421875 1.5625 47.375 C0.69818359 48.09816406 0.69818359 48.09816406 -0.18359375 48.8359375 C-4.29481401 51.470655 -9.24437256 51.64000967 -14 51 C-18.81789016 49.2091075 -22.1600798 46.2598803 -25 42 C-26.93795159 36.18614524 -27.02055692 30.07891224 -24.3125 24.5625 C-17.61328736 17.13904815 -17.61328736 17.13904815 -12.50390625 16.8671875 C-11.04791016 16.87105469 -11.04791016 16.87105469 -9.5625 16.875 C-8.59441406 16.87242188 -7.62632813 16.86984375 -6.62890625 16.8671875 C-4 17 -4 17 -1 18 C-0.67 12.06 -0.34 6.12 0 0 Z " fill="#F5FCFC" transform="translate(120,76)"/>
<path d="M0 0 C2.31 0 4.62 0 7 0 C7.01981934 0.61520508 7.03963867 1.23041016 7.06005859 1.86425781 C7.15549727 4.65992542 7.26509955 7.4548651 7.375 10.25 C7.4059375 11.21808594 7.436875 12.18617187 7.46875 13.18359375 C7.50742188 14.11816406 7.54609375 15.05273438 7.5859375 16.015625 C7.6173584 16.87446289 7.6487793 17.73330078 7.68115234 18.61816406 C8.0259126 21.1935707 8.60140079 22.81656264 10 25 C13.16818756 27.11212504 15.13219252 27.33156464 18.8671875 27.55859375 C22.52214937 26.60134183 23.79592693 25.05641478 26 22 C26.74690001 18.23165141 26.79042742 14.52077084 26.8125 10.6875 C26.83763672 9.66076172 26.86277344 8.63402344 26.88867188 7.57617188 C26.94741085 5.050396 26.98378712 2.52634772 27 0 C29.64 0 32.28 0 35 0 C35.10178049 6.97415644 35.17162496 13.94811989 35.21972656 20.92285156 C35.23978826 23.29336709 35.26704426 25.66383345 35.30175781 28.03417969 C35.35051418 31.44999351 35.37302399 34.86515055 35.390625 38.28125 C35.41127014 39.33364868 35.43191528 40.38604736 35.45318604 41.47033691 C35.4553151 48.52037001 34.52883447 54.29878285 29.51690674 59.55554199 C24.69508962 63.77456209 20.67610499 64.35813582 14.5 64.27734375 C9.46414441 63.71867852 6.45033741 60.64976727 3.1875 57.0625 C1.11277512 54.15788516 0.30882827 52.50005374 0 49 C2.64 49 5.28 49 8 49 C8.268125 49.78375 8.53625 50.5675 8.8125 51.375 C9.84814432 54.28114923 9.84814432 54.28114923 13 56 C15.14280359 56.42737035 15.14280359 56.42737035 17.4375 56.4375 C18.19933594 56.47746094 18.96117187 56.51742187 19.74609375 56.55859375 C22.18762521 56.13498119 22.18762521 56.13498119 24.23828125 54.0546875 C26.63195231 49.90424234 26.66813238 46.40233049 26.75 41.6875 C26.77964844 40.85154297 26.80929688 40.01558594 26.83984375 39.15429688 C26.91016107 37.10337515 26.95738973 35.05168438 27 33 C26.1028125 33.32226562 25.205625 33.64453125 24.28125 33.9765625 C18.69780209 35.71806649 14.0461054 36.0230527 8.75 33.375 C4.90465584 30.05402095 1.64085816 26.92257447 0 22 C-0.08178114 20.29983156 -0.10749501 18.59663703 -0.09765625 16.89453125 C-0.09443359 15.91162109 -0.09121094 14.92871094 -0.08789062 13.91601562 C-0.07951172 12.89185547 -0.07113281 11.86769531 -0.0625 10.8125 C-0.05798828 9.77673828 -0.05347656 8.74097656 -0.04882812 7.67382812 C-0.0370401 5.11582734 -0.02058515 2.55794267 0 0 Z " fill="#F3FBFB" transform="translate(169,92)"/>
<path d="M0 0 C8.43777781 7.63417993 8.43777781 7.63417993 8.73852539 13.64331055 C8.73328857 14.50738525 8.72805176 15.37145996 8.72265625 16.26171875 C8.71943359 17.19951172 8.71621094 18.13730469 8.71289062 19.10351562 C8.70032227 20.56821289 8.70032227 20.56821289 8.6875 22.0625 C8.68298828 23.05056641 8.67847656 24.03863281 8.67382812 25.05664062 C8.66204303 27.49615474 8.64559011 29.93554689 8.625 32.375 C5.985 32.375 3.345 32.375 0.625 32.375 C0.625 31.715 0.625 31.055 0.625 30.375 C-0.5815625 30.87 -0.5815625 30.87 -1.8125 31.375 C-7.56974324 32.99106828 -12.27070436 33.44699966 -17.6875 30.6875 C-23.17388725 25.96665516 -25.98445058 21.77835919 -26.8125 14.5625 C-26.66193573 9.58446895 -24.59567127 6.07918171 -21.375 2.375 C-15.5069109 -3.05107719 -6.99936456 -3.37006442 0 0 Z " fill="#F4FBFC" transform="translate(157.375,94.625)"/>
<path d="M0 0 C2.64 0 5.28 0 8 0 C8.33 9.57 8.66 19.14 9 29 C10.93875 26.855 12.8775 24.71 14.875 22.5 C20.71212116 16.35982456 20.71212116 16.35982456 25.08984375 15.13671875 C27.52139881 15.18207057 29.65194416 15.37985884 32 16 C31.12848385 17.04458319 30.25253033 18.08546407 29.375 19.125 C28.83359375 19.76824219 28.2921875 20.41148438 27.734375 21.07421875 C26.12508583 22.86110965 24.44095364 24.36799721 22.625 25.9375 C20.23326461 28.2728856 19.58666193 29.77613533 19.5 33.125 C20.00461266 37.38835395 20.00461266 37.38835395 22 41 C25.84892393 43.56594929 28.1474366 43.05052842 32.625 42.77734375 C35 43 35 43 36.8125 44.31640625 C38 46 38 46 38 49 C33.75902386 51.12048807 29.66599229 51.8335198 25 51 C19.39881939 48.63144268 15.7956427 45.35831517 13 40 C13 39.01 13 38.02 13 37 C10.68540132 38.81817001 10.04622813 39.75615543 9.48828125 42.69921875 C9.43027344 43.68535156 9.37226562 44.67148438 9.3125 45.6875 C9.24675781 46.68136719 9.18101563 47.67523438 9.11328125 48.69921875 C9.07589844 49.45847656 9.03851563 50.21773437 9 51 C6.03 51 3.06 51 0 51 C0 34.17 0 17.34 0 0 Z " fill="#F4FBFB" transform="translate(58,76)"/>
<path d="M0 0 C2.64 0 5.28 0 8 0 C8.33 9.57 8.66 19.14 9 29 C10.93875 26.855 12.8775 24.71 14.875 22.5 C20.71212116 16.35982456 20.71212116 16.35982456 25.08984375 15.13671875 C27.52139881 15.18207057 29.65194416 15.37985884 32 16 C31.125 17.02083333 30.25 18.04166667 29.375 19.0625 C28.83359375 19.70445313 28.2921875 20.34640625 27.734375 21.0078125 C26.61881598 22.28919786 25.46425917 23.53815408 24.265625 24.7421875 C21.34694472 27.75815712 19.59758545 29.8947807 19.375 34.1875 C19.7414398 37.90574255 19.7414398 37.90574255 21.4375 40.375 C25.07030414 42.67872945 28.79237856 43.31671105 33 44 C33 46.31 33 48.62 33 51 C26.5353897 51.45365686 23.30914982 50.77766429 18 47 C15.75 44.5 15.75 44.5 14 42 C13.4225 41.236875 12.845 40.47375 12.25 39.6875 C11.8375 39.130625 11.425 38.57375 11 38 C8.41073669 40.58926331 8.62601957 42.02705279 8.375 45.625 C8.30023438 46.62789062 8.22546875 47.63078125 8.1484375 48.6640625 C8.09945313 49.43492188 8.05046875 50.20578125 8 51 C5.36 51 2.72 51 0 51 C0 34.17 0 17.34 0 0 Z " fill="#F7FCFC" transform="translate(21,76)"/>
<path d="M0 0 C2.86624771 2.44825325 4.61349969 4.24877735 5.44140625 8 C5.65821147 11.69268247 5.10798801 13.83081878 3.125 16.9375 C0.22627065 19.75097261 -0.62217779 19.96221778 -4.75 20.375 C-8.19719123 20.30593059 -9.24802324 19.86020508 -12.4375 18.0625 C-15.33854065 14.59540264 -16.02461597 12.58037255 -16.23828125 8.15234375 C-15.86587017 4.78843387 -14.47949372 3.21144034 -12 1 C-8.39417185 -1.83315069 -4.17960452 -1.39871913 0 0 Z " fill="#29BEC9" transform="translate(116,100)"/>
<path d="M0 0 C2.75569447 2.18159145 4.43588747 3.87177494 6 7 C6.59873168 12.26883876 5.25400021 14.8846468 2 19 C-1.45739557 20.72869779 -5.21975568 20.48966895 -9 20 C-11.87029869 18.20606332 -13.49131638 17.01736724 -15 14 C-15.5811138 6.91041162 -15.5811138 6.91041162 -13.125 3.0625 C-9.24699241 -0.70144855 -5.21240222 -0.82822281 0 0 Z " fill="#27BEC8" transform="translate(153,100)"/>
<path d="M0 0 C2.125 0.375 2.125 0.375 4 1 C4.38218767 2.65614657 4.71395102 4.32457024 5 6 C4 7 4 7 1.4375 7.0625 C0.2309375 7.0315625 0.2309375 7.0315625 -1 7 C-1.625 4.625 -1.625 4.625 -2 2 C-1.34 1.34 -0.68 0.68 0 0 Z " fill="#EFFAFB" transform="translate(147,106)"/>
<path d="M0 0 C2.0625 0.4375 2.0625 0.4375 4 1 C4.33 2.65 4.66 4.3 5 6 C2.625 6.625 2.625 6.625 0 7 C-0.66 6.34 -1.32 5.68 -2 5 C-1.46428571 1.46428571 -1.46428571 1.46428571 0 0 Z " fill="#F2FBFB" transform="translate(109,106)"/>
</svg>
