<svg width="40" height="40" viewBox="0 0 40 40" fill="none" xmlns="http://www.w3.org/2000/svg">
<g clip-path="url(#clip0_1830_129)">
<mask id="mask0_1830_129" style="mask-type:luminance" maskUnits="userSpaceOnUse" x="0" y="1" width="40" height="40">
<path d="M40 1H0V41H40V1Z" fill="white"/>
</mask>
<g mask="url(#mask0_1830_129)">
<path d="M0 6.0002C0 3.23867 2.23867 1 5.0002 1H34.9998C37.7613 1 40 3.23867 40 6.0002V35.9998C40 38.7613 37.7613 41 34.9998 41H5.0002C2.23867 41 0 38.7613 0 35.9998V6.0002Z" fill="#FFF500"/>
<path d="M19.7624 24.7812C16.651 24.7812 14.8143 24.4571 12.9777 23.8305L12.5887 20.2869L12.6968 20.2437C14.447 21.2808 17.256 21.8426 19.3951 21.8426C21.7071 21.8426 22.6362 21.2808 22.6362 20.4381C22.6362 19.6819 21.5775 19.4874 20.7564 19.3578L17.4072 18.796C15.0952 18.407 12.5887 17.5427 12.5887 14.6257C12.5887 11.1469 16.2188 9.61279 20.2162 9.61279C22.6578 9.61279 25.0995 9.98014 26.612 10.7364L25.4236 13.6318C23.7814 12.8107 21.7287 12.4218 20.1082 12.4218C18.0555 12.4218 17.256 12.9619 17.256 13.6534C17.256 14.4529 18.2067 14.6257 19.0062 14.7554L22.0528 15.2739C25.1859 15.7709 27.4115 16.8081 27.4115 19.4874C27.4115 23.2687 23.6518 24.7812 19.7624 24.7812Z" fill="black"/>
<path d="M12.2628 32.2785L11.8739 28.8638C13.6413 28.0617 15.6809 28.0933 17.4275 28.9596L18.5785 29.5305C19.4912 29.9832 20.5636 29.9809 21.4743 29.5242L22.5668 28.9763C24.3247 28.0948 26.384 28.0614 28.165 28.8767L27.7762 32.2907L26.9187 31.8627C26.0045 31.4065 24.9289 31.4075 24.0156 31.8654L22.9231 32.4133C21.1051 33.325 18.9644 33.3297 17.1424 32.426L15.9914 31.8551C15.0791 31.4026 14.0075 31.4047 13.097 31.8607L12.2628 32.2785Z" fill="black"/>
</g>
</g>
<defs>
<clipPath id="clip0_1830_129">
<rect width="40.0011" height="40" fill="white" transform="translate(0 0.585938)"/>
</clipPath>
</defs>
</svg>
