<svg width="40" height="41" viewBox="0 0 40 41" fill="none" xmlns="http://www.w3.org/2000/svg">
<g clip-path="url(#clip0_14234_14419)">
<path fill-rule="evenodd" clip-rule="evenodd" d="M12.187 22.7535C15.0997 8.2479 26.2007 2.79102 26.2007 2.79102C26.2007 2.79102 8.77093 9.01096 2.95184 11.0578C2.52661 11.2067 2.12425 11.4378 1.78423 11.7755C0.573226 12.9771 0.573226 14.9262 1.78423 16.1278C1.91755 16.2602 2.06193 16.3714 2.21103 16.4741L12.187 22.7535Z" fill="#00C2FF"/>
<path fill-rule="evenodd" clip-rule="evenodd" d="M28.6647 38.2536L39.3201 4.46872L39.3124 4.45833C39.6517 3.35784 39.4412 2.08963 38.6613 1.21034C37.312 -0.311027 35.6431 0.522732 35.6403 0.524329C19.688 7.26229 16.5069 30.7265 24.1137 39.3005C25.201 40.5265 26.9633 40.5265 28.0506 39.3005C28.3247 38.9923 28.5287 38.6345 28.6647 38.2536Z" fill="#0DAD36"/>
</g>
<defs>
<clipPath id="clip0_14234_14419">
<rect width="40" height="40" fill="white" transform="translate(0 0.210938)"/>
</clipPath>
</defs>
</svg>
