<svg width="40" height="41" viewBox="0 0 40 41" fill="none" xmlns="http://www.w3.org/2000/svg">
<path d="M26.7965 26.1752L20.6323 20.1523L26.7965 13.9925C27.6184 13.1712 27.6184 12.0761 26.7965 11.1179C25.9746 10.2966 24.7417 10.2966 23.9198 11.1179L16.3858 18.6466C16.2488 18.7835 16.1118 19.0572 15.9749 19.331C15.8379 19.6048 15.8379 19.8785 15.8379 20.1523C15.8379 20.4261 15.8379 20.6998 15.9749 20.9736C16.1118 21.2474 16.2488 21.3843 16.3858 21.658L23.9198 29.1867C24.7417 30.008 25.8376 30.008 26.7965 29.1867C27.6184 28.2285 27.4814 26.9965 26.7965 26.1752ZM14.879 27.6809V12.6237C14.879 11.5286 14.0571 10.5704 12.8243 10.5704C11.5914 10.5704 10.7695 11.3917 10.7695 12.6237V27.6809C10.7695 28.776 11.5914 29.7342 12.8243 29.7342C14.0571 29.5973 14.879 28.776 14.879 27.6809Z" fill="#171B1E"/>
<path d="M36.6993 27.3425C36.4755 27.1747 36.2517 27.1187 35.972 27.1187C35.8042 27.1187 35.5804 27.1747 35.4126 27.2306C35.2447 27.3425 35.0769 27.4544 34.965 27.6222C33.4545 29.6921 31.2727 31.4264 28.6993 32.6572C26.0699 33.9439 22.993 34.5593 19.9161 34.5593C15.2168 34.5593 10.7413 33.0488 7.44056 30.3075C5.87412 28.9649 4.58741 27.4544 3.74825 25.7201C2.85315 23.9859 2.40559 22.1397 2.40559 20.2376C2.40559 18.3355 2.85315 16.4893 3.74825 14.7551C5.09091 12.1257 7.27273 9.94389 10.0699 8.32151C12.979 6.69914 16.3916 5.80403 19.972 5.80403C23.0489 5.80403 26.1259 6.47536 28.7552 7.76207C31.3287 8.99284 33.4545 10.7271 35.021 12.797C35.1329 12.9649 35.3007 13.0768 35.4685 13.1886C35.6364 13.3005 35.8042 13.3005 36.028 13.3005C36.3077 13.3005 36.5315 13.2446 36.7552 13.0768C37.035 12.9089 37.2028 12.5733 37.2587 12.2935C37.3147 11.9579 37.2028 11.6222 37.035 11.3984C35.1888 8.99284 32.7273 6.97886 29.8182 5.58026C26.8531 4.12571 23.4406 3.39844 19.972 3.39844C14.6573 3.39844 9.67832 5.1327 5.93007 8.26557C4.08391 9.77606 2.62937 11.6222 1.62238 13.5803C0.55944 15.6502 0 17.8879 0 20.1817C0 22.4754 0.55944 24.7131 1.62238 26.7831C3.13287 29.804 5.65035 32.3215 8.8951 34.1677C12.1958 36.0138 16 36.9649 19.972 36.9649C23.4406 36.9649 26.7972 36.2376 29.8182 34.7831C32.7273 33.3845 35.1888 31.4264 36.979 29.0208C37.1468 28.7411 37.2587 28.4614 37.2028 28.1257C37.1468 27.79 36.9231 27.5103 36.6993 27.3425Z" fill="#00A991"/>
<path d="M38.6571 18.8379C38.3214 18.8379 37.9858 19.0057 37.7061 19.2295C37.4823 19.4533 37.3145 19.8449 37.3145 20.1805C37.3145 20.5162 37.4823 20.8519 37.7061 21.1316C37.9298 21.3554 38.3214 21.5232 38.6571 21.5232C38.9928 21.5232 39.3284 21.3554 39.6082 21.1316C39.8319 20.9078 39.9998 20.5162 39.9998 20.1805C39.9998 19.8449 39.8319 19.5092 39.6082 19.2295C39.3284 19.0057 38.9928 18.8379 38.6571 18.8379Z" fill="#00A991"/>
</svg>
