<svg width="40" height="41" viewBox="0 0 40 41" fill="none" xmlns="http://www.w3.org/2000/svg">
<g clip-path="url(#clip0_14240_14537)">
<path d="M17.1613 2.33867C18.9225 1.98644 20.5075 1.98644 22.0925 2.16256C22.2687 2.86702 22.9731 4.98039 23.5015 8.15046C21.7403 7.62211 19.8031 7.62211 17.8658 7.97434C9.94064 9.20715 4.48108 16.604 5.71388 24.5291C6.41834 28.4037 8.53172 31.7498 11.5257 34.0393C9.06006 35.8005 7.29891 37.0333 6.59446 37.3855C3.42439 34.2154 0.958786 30.1648 0.254327 25.4097C-1.50682 14.4906 6.06611 4.09982 17.1613 2.33867Z" fill="#F5DC44"/>
<path d="M34.2456 8.14868C31.6039 5.50696 28.0816 3.74581 24.031 2.86523C24.9115 6.0353 27.201 14.841 23.5026 22.5901C19.9803 30.163 12.0552 35.7987 8.70898 37.9121C11.1746 37.2076 13.9924 36.8554 17.1625 36.6793C23.1504 36.327 28.6099 37.2076 31.4278 38.6165C33.365 37.3837 34.9501 35.7987 36.359 33.8614C39.3529 29.8108 40.7619 24.5273 39.8813 19.2439C39.1768 14.6649 37.0634 10.9665 34.2456 8.14868Z" fill="#3E4757"/>
</g>
<defs>
<clipPath id="clip0_14240_14537">
<rect width="40" height="40" fill="white" transform="translate(0 0.228516)"/>
</clipPath>
</defs>
</svg>
