<?xml version="1.0" standalone="no"?>
<!DOCTYPE svg PUBLIC "-//W3C//DTD SVG 20010904//EN"
 "http://www.w3.org/TR/2001/REC-SVG-20010904/DTD/svg10.dtd">
<svg version="1.0" xmlns="http://www.w3.org/2000/svg"
 width="1000.000000pt" height="1000.000000pt" viewBox="0 0 1000.000000 1000.000000"
 preserveAspectRatio="xMidYMid meet">

<g transform="translate(0.000000,1000.000000) scale(0.100000,-0.100000)"
fill="#000000" stroke="none">
<path d="M4830 8939 c-568 -24 -1149 -222 -1635 -557 -456 -314 -829 -753 -1070 -1257 -115 -240 -191 -472 -246 -740 -79 -390 -82 -832 -8 -1225 33 -176 107 -434 164 -575 9 -22 22 -53 28 -69 84 -206 330 -634 361 -630 6 1 52 71 104 155 191 312 262 427 352 574 51 83 130 211 175 285 84 137 169 276 335 545 51 83 130 211 175 285 45 74 124 203 175 285 51 83 118 192 149 243 31 50 60 91 66 89 5 -2 30 -39 55 -83 26 -43 111 -189 190 -324 221 -376 272 -463 287 -490 14 -24 14 -22 8 20 -4 25 -13 72 -20 105 -8 33 -20 92 -29 130 -8 39 -31 143 -51 232 -19 89 -35 170 -34 180 0 24 632 1088 644 1087 6 -1 15 -10 20 -20 6 -11 19 -35 31 -54 11 -19 93 -159 181 -310 89 -151 237 -405 330 -565 93 -159 239 -409 323 -554 85 -145 156 -259 158 -253 3 9 -40 216 -77 377 -10 42 -45 207 -56 262 -5 27 4 49 62 147 37 64 72 115 77 113 9 -3 66 -92 256 -402 47 -76 124 -202 172 -279 171 -279 217 -354 350 -571 700 -1139 747 -1215 754 -1215 2 0 25 33 52 72 242 359 407 754 491 1173 50 253 55 308 56 615 0 307 -9 409 -55 640 -172 856 -666 1577 -1421 2072 -162 107 -460 250 -669 321 -392 133 -763 184 -1210 166z"/>
<path d="M570 1800 l0 -751 158 3 157 3 5 506 5 506 305 -456 c167 -251 322 -480 343 -509 l38 -53 157 3 157 3 3 748 2 747 -155 0 -155 0 0 -475 c0 -261 -4 -475 -8 -475 -5 0 -151 214 -326 475 l-319 475 -183 0 -184 0 0 -750z"/>
<path d="M4830 2265 c0 -157 -3 -285 -6 -285 -4 0 -28 16 -55 36 -81 59 -140 77 -249 78 -73 0 -108 -5 -152 -22 -177 -67 -298 -218 -335 -418 -15 -80 -15 -94 1 -181 52 -296 269 -466 551 -433 87 10 146 35 208 90 l47 42 0 -61 0 -61 145 0 145 0 0 750 0 750 -150 0 -150 0 0 -285z m-121 -474 c147 -76 174 -291 52 -410 -134 -131 -357 -76 -415 101 -9 28 -16 65 -16 83 0 18 7 55 16 83 49 152 216 217 363 143z"/>
<path d="M5249 2522 c9 -29 91 -257 116 -322 8 -19 50 -136 95 -260 45 -124 87 -241 95 -260 7 -19 43 -118 80 -220 36 -102 70 -195 75 -207 5 -12 21 -57 36 -100 14 -43 31 -84 36 -90 8 -10 58 -13 188 -13 l177 0 16 43 c8 23 52 143 97 267 45 124 88 241 95 260 8 19 51 136 95 260 45 124 118 322 161 440 44 118 79 218 79 223 0 4 -75 6 -167 5 l-167 -3 -38 -110 c-57 -167 -88 -256 -188 -545 -50 -146 -105 -305 -122 -355 -17 -49 -33 -93 -37 -97 -4 -4 -26 50 -50 120 -24 70 -65 190 -92 267 -102 299 -237 691 -244 708 -6 15 -25 17 -175 17 l-169 0 8 -28z"/>
<path d="M6832 1803 l3 -748 155 0 155 0 5 260 5 260 190 6 c172 5 198 8 270 33 189 64 293 188 318 377 33 251 -80 445 -309 531 -56 21 -77 22 -427 26 l-367 3 2 -748z m627 446 c94 -20 151 -76 159 -157 8 -92 -30 -155 -118 -195 -38 -17 -67 -20 -195 -21 l-150 -1 -3 180 c-1 98 0 185 2 192 7 16 232 18 305 2z"/>
<path d="M8110 1800 l0 -751 153 3 152 3 3 503 c1 276 6 502 10 502 4 0 74 -100 156 -223 82 -122 235 -349 339 -504 l191 -283 158 0 158 0 0 750 0 750 -155 0 -155 0 0 -476 c0 -302 -4 -473 -10 -469 -5 3 -145 209 -311 458 -166 249 -309 460 -317 470 -13 15 -36 17 -194 17 l-178 0 0 -750z"/>
<path d="M9784 2539 c-45 -13 -125 -88 -153 -144 -48 -96 -26 -232 52 -314 67 -70 195 -102 286 -70 27 9 31 16 31 46 0 28 -3 33 -13 25 -7 -6 -34 -16 -60 -21 -172 -39 -322 144 -248 304 50 109 175 163 278 120 46 -20 45 -20 41 17 -2 25 -9 34 -28 39 -36 10 -150 9 -186 -2z"/>
<path d="M9777 2433 c-4 -3 -7 -75 -7 -160 l0 -153 35 0 35 0 0 55 c0 51 2 55 24 55 19 0 29 -12 51 -55 24 -47 32 -55 57 -55 35 0 37 23 7 82 l-22 42 22 14 c18 12 21 24 21 78 0 62 -1 65 -32 84 -25 15 -51 20 -109 20 -42 0 -79 -3 -82 -7z m151 -75 c17 -17 15 -45 -4 -52 -9 -3 -31 -6 -50 -6 -32 0 -34 2 -34 35 0 34 1 35 38 35 21 0 43 -5 50 -12z"/>
<path d="M2540 2094 c-143 -28 -280 -111 -359 -218 -71 -95 -101 -189 -101 -314 0 -309 240 -533 571 -532 151 0 289 58 394 164 111 112 158 224 157 376 0 143 -48 265 -142 361 -106 108 -229 159 -390 164 -58 2 -116 1 -130 -1z m199 -290 c95 -40 151 -124 151 -229 0 -80 -23 -144 -67 -190 -91 -94 -245 -101 -344 -16 -122 103 -118 305 7 404 69 54 168 66 253 31z"/>
<path d="M3801 2073 c-26 -9 -67 -38 -98 -68 -29 -28 -55 -49 -58 -47 -3 3 -5 32 -5 64 l0 58 -132 0 c-73 0 -139 -4 -146 -8 -10 -7 -12 -116 -10 -513 l3 -504 150 0 150 0 5 285 5 285 27 46 c51 87 143 129 249 115 l49 -7 0 150 c0 126 -2 150 -16 155 -29 11 -128 5 -173 -11z"/>
</g>
</svg>
