<svg width="40" height="41" viewBox="0 0 40 41" fill="none" xmlns="http://www.w3.org/2000/svg">
<path d="M3.04848 11.5084C3.66182 11.803 4.29621 12.0544 4.94687 12.2598C6.34248 12.7003 6.53564 12.5151 5.932 11.2739C5.67671 10.749 5.39215 10.2445 5.08098 9.76177C4.47286 8.81848 4.06303 8.47172 3.0934 9.28823C2.90045 9.45073 2.72 9.62618 2.55303 9.81292C1.96747 10.4678 1.97486 10.9927 3.04848 11.5084Z" fill="#FF5B00"/>
<path d="M16.92 38.1512C16.68 37.4671 16.3914 36.7995 16.0556 36.1547C15.3356 34.7713 15.0497 34.7655 14.5662 36.1569C14.3618 36.7453 14.1947 37.3405 14.0644 37.9391C13.8098 39.109 13.8568 39.6793 15.2064 39.7932C15.475 39.8158 15.7439 39.8193 16.0112 39.8041C16.9487 39.7507 17.3402 39.3489 16.92 38.1512Z" fill="#4D40CA"/>
<path d="M35.8924 28.067C35.3462 27.429 34.8447 26.7519 34.3928 26.0405C33.4237 24.515 33.5827 24.2248 35.2535 24.5477C35.9601 24.6842 36.6517 24.8621 37.3258 25.079C38.6432 25.5027 39.1867 25.881 38.5228 27.3011C38.3906 27.5837 38.2391 27.8555 38.0698 28.1149C37.4762 29.0243 36.8487 29.184 35.8924 28.067Z" fill="#00CBD0"/>
<path d="M26.8556 3.87229C26.3723 4.28406 25.8595 4.66208 25.3207 5.0027C24.1651 5.7333 23.9454 5.61334 24.1899 4.35394C24.2933 3.82131 24.4282 3.29992 24.5924 2.7918C24.9133 1.7988 25.1998 1.38905 26.2754 1.8895C26.4895 1.9891 26.6954 2.10333 26.8919 2.23094C27.5807 2.67843 27.7016 3.1515 26.8556 3.87229Z" fill="#FFC200"/>
<path d="M6.48899 26.9561C1.1173 30.1586 -0.439788 26.1196 0.101208 20.8273C0.948236 12.5412 6.48899 12.3988 9.09175 18.319C10.6647 21.8969 10.065 24.8242 6.48899 26.9561Z" fill="#00CBD0"/>
<path d="M12.7435 32.7008C12.7435 33.5982 12.7067 34.4872 12.6345 35.3661C12.4862 37.1689 11.3162 38.6735 8.93718 37.1689C7.96226 36.5522 7.04492 35.8529 6.19501 35.0806C4.22676 33.2919 3.72503 31.5584 6.19501 29.3965C6.8186 28.8507 7.4635 28.3286 8.12832 27.8318C11.221 25.5205 12.4195 27.0844 12.6567 30.3209C12.7142 31.1067 12.7435 31.9003 12.7435 32.7008Z" fill="#FF5B00"/>
<path d="M30.6978 30.9515C28.7789 29.3245 26.7429 27.831 24.604 26.485C20.0162 23.5982 19.1437 24.0722 20.1145 29.0484C20.5251 31.153 21.0604 33.2131 21.7125 35.2208C22.9866 39.1443 24.1242 40.7633 28.3946 38.7859C29.2445 38.3924 30.0618 37.941 30.8417 37.4369C33.5767 35.6687 34.0566 33.7996 30.6978 30.9515Z" fill="#FFC200"/>
<path d="M28.4762 10.6788C27.8894 11.4465 27.3246 12.2315 26.7822 13.033C23.5687 17.7821 23.8869 17.9593 28.4762 19.964C30.1294 20.6864 31.8293 21.3227 33.5696 21.8677C39.9339 23.8605 40.9073 21.6352 39.053 16.1117C38.5243 14.5368 37.7922 13.0546 36.8881 11.696C34.0719 7.46427 31.7627 6.37767 28.4762 10.6788Z" fill="#FF5B00"/>
<path d="M18.4419 1.53959C16.8463 1.69359 15.3078 2.04237 13.8505 2.56181C9.87999 3.97716 10.4687 5.64113 12.6562 8.81926C13.1077 9.4753 13.5742 10.1203 14.0553 10.7538C16.6041 14.1106 17.2766 14.8531 19.3447 10.0933C20.0195 8.5403 20.6192 6.94723 21.1393 5.31871C22.0197 2.56181 21.884 1.20737 18.4419 1.53959Z" fill="#4D40CA"/>
</svg>
