<svg width="40" height="40" viewBox="0 0 40 40" fill="none" xmlns="http://www.w3.org/2000/svg">
<rect width="40" height="40" rx="4" fill="#2459A9"/>
<path d="M10.768 30H4.51576C3.60771 30 2.9676 29.786 2.58056 29.3734C2.19352 28.9607 2 28.3035 2 27.4017V11.6135C2 10.6812 2.19352 10.024 2.59545 9.61135C2.99737 9.21397 3.63748 9 4.51576 9H11.1401C12.1226 9 12.9562 9.06114 13.6856 9.18341C14.4151 9.30568 15.0403 9.55022 15.606 9.90175C16.0823 10.2074 16.514 10.5742 16.8862 11.0328C17.2583 11.4913 17.5412 11.9803 17.7347 12.5306C17.9282 13.0808 18.0324 13.6616 18.0324 14.2729C18.0324 16.3668 17.0053 17.9105 14.9658 18.8886C17.6602 19.7598 19 21.4716 19 24.024C19 25.2009 18.7023 26.2555 18.1217 27.2031C17.5412 28.1507 16.7373 28.8231 15.7399 29.2817C15.1147 29.5415 14.4002 29.7402 13.5963 29.8472C12.7776 29.9541 11.8398 30 10.768 30ZM6.13835 12.1943V17.6201H9.93433C10.9615 17.6201 11.7653 17.5131 12.331 17.3144C12.8967 17.1157 13.3284 16.7489 13.6261 16.1834C13.8643 15.786 13.9685 15.3275 13.9685 14.8384C13.9685 13.7838 13.5963 13.0808 12.8669 12.7293C12.1375 12.3777 11.0061 12.1943 9.50263 12.1943H6.13835ZM10.4553 20.6769H6.13835V26.8057H10.5893C13.3879 26.8057 14.7872 25.7664 14.7872 23.7031C14.7872 22.6485 14.4299 21.869 13.7005 21.3952C12.986 20.9214 11.8993 20.6769 10.4553 20.6769Z" fill="#FFD71C"/>
<path d="M29.768 30H23.5158C22.6077 30 21.9676 29.786 21.5806 29.3734C21.1935 28.9607 21 28.3035 21 27.4017V11.6135C21 10.6812 21.1935 10.024 21.5954 9.61135C21.9974 9.21397 22.6375 9 23.5158 9H30.1401C31.1226 9 31.9562 9.06114 32.6856 9.18341C33.4151 9.30568 34.0403 9.55022 34.606 9.90175C35.0823 10.2074 35.514 10.5742 35.8862 11.0328C36.2583 11.4913 36.5412 11.9803 36.7347 12.5306C36.9282 13.0808 37.0324 13.6616 37.0324 14.2729C37.0324 16.3668 36.0053 17.9105 33.9658 18.8886C36.6602 19.7598 38 21.4716 38 24.024C38 25.2009 37.7023 26.2555 37.1217 27.2031C36.5412 28.1507 35.7373 28.8231 34.7399 29.2817C34.1147 29.5415 33.4002 29.7402 32.5963 29.8472C31.7776 29.9541 30.8398 30 29.768 30ZM25.1384 12.1943V17.6201H28.9343C29.9615 17.6201 30.7653 17.5131 31.331 17.3144C31.8967 17.1157 32.3284 16.7489 32.6261 16.1834C32.8643 15.786 32.9685 15.3275 32.9685 14.8384C32.9685 13.7838 32.5963 13.0808 31.8669 12.7293C31.1375 12.3777 30.0061 12.1943 28.5026 12.1943H25.1384ZM29.4553 20.6769H25.1384V26.8057H29.5893C32.3879 26.8057 33.7872 25.7664 33.7872 23.7031C33.7872 22.6485 33.4299 21.869 32.7005 21.3952C31.986 20.9214 30.8993 20.6769 29.4553 20.6769Z" fill="#FFD71C"/>
</svg>
